PathFileType	4	(X/Y/Z)	C:/Users/beibeiliu/ov580/test_trc/User2\sequence.2_training_dense_right.trc
DataRate	CameraRate	NumFrames	NumMarkers	Units	OrigDataRate	OrigDataStartFrame	OrigNumFrames
120	120	14	19	mm	120	231	307
Frame#	Time	ThumbCMC			ThumbMCP			ThumbIP			ThumbTip			IndexMCP			IndexPIP			IndexTip			MiddleMCP			MiddlePIP			MiddleTip			RingMCP			RingPIP			RingTip			PinkyMCP			PinkyPIP			PinkyTip			BackHand1			BackHand2			BackHand3	
		X0	Y0	Z0	X1	Y1	Z1	X2	Y2	Z2	X3	Y3	Z3	X4	Y4	Z4	X5	Y5	Z5	X6	Y6	Z6	X7	Y7	Z7	X8	Y8	Z8	X9	Y9	Z9	X10	Y10	Z10	X11	Y11	Z11	X12	Y12	Z12	X13	Y13	Z13	X14	Y14	Z14	X15	Y15	Z15	X16	Y16	Z16	X17	Y17	Z17	X18	Y18	Z18	
230	1.91667	144.526	12.7268	20.0373	126.284	13.4846	-12.924	109.395	5.40986	-40.8033	89.6117	-12.8462	-53.6875	139.377	-53.7643	-25.9717	118.79	-56.028	-49.8557	100.178	-27.3212	-59.4303	121.049	-68.0914	-18.6432	99.3444	-61.2825	-51.9425	86.0611	-27.9485	-51.685	104.391	-67.6208	-11.5568	82.474	-60.8371	-37.7223	73.9891	-26.358	-40.2968	86.9312	-62.9942	3.80391	71.3996	-56.0794	-24.0805	64.1654	-31.3944	-31.933	118.444	-45.3337	46.6219	125.731	-27.5863	74.5331	153.016	-20.8895	41.3185	
231	1.925	147.597	18.4921	19.211	128.408	17.6637	-14.7639	112.152	10.5991	-43.0164	92.0499	-8.91559	-54.2026	143.938	-49.1458	-29.4967	120.916	-48.9824	-57.4396	99.0541	-22.4225	-59.5062	122.605	-65.1448	-22.2005	100.558	-58.3529	-53.7244	82.8539	-27.1726	-53.2536	106.88	-65.3171	-14.5416	87.9522	-60.5393	-38.8467	72.6926	-28.823	-40.7217	88.3054	-63.6551	5.76082	72.6297	-55.418	-25.319	66.8953	-29.236	-35.5002	123.538	-45.102	42.9901	129.627	-30.7762	70.2054	153.149	-22.9736	40.1108	
232	1.93333	144.281	20.9523	23.5431	123.136	22.3001	-8.62189	105.083	12.7065	-40.8548	85.1499	-3.03789	-53.9852	137.975	-44.843	-33.4246	115.277	-42.7423	-56.6412	93.4723	-18.1269	-58.8776	119.641	-60.6538	-28.2279	97.0925	-54.5781	-53.4995	74.1597	-17.7834	-51.5859	101.761	-64.1308	-16.6203	82.4295	-51.5722	-40.7872	69.5688	-20.1711	-38.8807	90.8442	-60.7929	2.66635	72.3381	-52.2132	-25.3425	63.3838	-28.2515	-30.5798	123.698	-46.5912	39.0381	131.989	-29.1149	72.3596	157.448	-16.4341	37.3504	
233	1.94167	138.397	25.8283	24.0827	114.402	28.812	-7.06948	92.4071	17.8599	-35.4743	73.0041	3.92157	-47.4282	133.183	-32.5038	-34.7665	105.533	-33.7396	-58.6962	83.3771	-12.933	-55.3434	120.089	-50.624	-31.5777	90.7448	-46.084	-54.4182	64.9826	-14.093	-49.5909	100.728	-57.7884	-17.7512	75.5381	-50.6639	-35.8338	58.2074	-17.5092	-30.3921	89.257	-58.0774	5.35848	65.3196	-49.5655	-21.2914	52.0793	-25.9833	-22.4688	128.134	-42.7441	40.0167	138.517	-30.3241	64.9468	153.868	-14.3148	35.2494	
234	1.95	129.011	31.4527	27.319	100.611	29.988	-0.737323	75.7201	20.5623	-26.3473	59.7004	0.931468	-34.3512	123.064	-26.8271	-37.8026	95.9547	-27.7637	-55.307	69.818	-5.2874	-50.6459	114.688	-44.0385	-30.8879	84.4404	-41.6443	-52.2126	54.6655	-14.2957	-40.2355	100.335	-52.8127	-19.106	71.6539	-48.6464	-33.6557	51.6986	-15.5997	-22.4481	89.1007	-59.6986	3.99837	67.1299	-49.9939	-16.6452	49.4273	-26.2678	-14.6367	132.461	-40.3688	34.0618	142.987	-27.3615	61.9213	151.406	-7.28069	30.7854	
235	1.95833	118.381	33.7659	27.8895	87.7299	33.0688	7.56026	62.0755	20.5799	-18.5212	46.7308	0.95705	-29.2132	119.679	-12.7146	-38.937	90.8482	-18.8601	-56.6015	63.2773	-11.496	-43.4523	114.577	-35.4571	-34.5022	78.6472	-36.9859	-50.3736	51.644	-19.9254	-33.9606	103.088	-48.8111	-18.2925	72.6947	-49.3461	-31.2056	49.8347	-25.2287	-16.3725	97.8073	-55.0491	1.25326	64.34	-52.6761	-14.1418	47.1246	-33.6075	-6.15856	138.312	-31.1499	30.306	147.405	-21.7929	59.0037	150.611	2.07278	28.2314	
236	1.96667	112.087	36.6841	31.3724	81.3638	32.6498	12.5127	59.29	16.3159	-14.3894	48.3191	-6.33796	-28.0229	120.323	-6.30842	-37.8432	93.0052	-12.5277	-56.6138	59.9996	-7.12292	-44.1039	119.025	-28.0232	-36.5286	86.4641	-33.1028	-52.3849	53.6262	-21.4392	-27.3386	109.052	-45.7161	-24.8492	80.1617	-48.7116	-34.7377	55.9797	-29.6789	-17.5825	106.232	-53.247	-7.4299	76.82	-51.4234	-18.6002	52.0693	-34.4033	-6.47073	141.547	-30.0263	28.3474	150.209	-15.2439	60.2451	148.023	9.69592	28.3081	
237	1.975	108.173	37.7871	31.8699	77.8061	30.6861	9.11092	60.2215	14.1577	-16.8146	53.1875	-8.82937	-31.5839	125.306	3.17794	-39.2826	100.926	-9.51893	-56.8025	64.3434	-11.65	-43.8616	126.443	-20.0221	-43.0465	92.3525	-29.2952	-55.1171	62.174	-22.2519	-29.4973	120.58	-38.2829	-33.0518	93.2715	-42.2888	-42.2667	65.6177	-34.3477	-21.6803	119.736	-49.4645	-12.83	88.1988	-54.2746	-26.358	64.9816	-40.5335	-11.8696	151.142	-18.8049	22.5926	156.004	-8.96505	54.9984	150.604	18.6169	30.4361	
238	1.98333	105.376	34.6819	37.0524	79.41	22.8535	9.59412	60.6598	10.09	-19.9035	58.2767	-12.0111	-37.4793	128.897	11.5225	-41.1045	105.797	2.45239	-61.8066	74.4035	-8.74263	-48.9264	135.124	-8.54655	-44.9701	101.211	-24.7202	-58.2272	74.1889	-24.1011	-35.2482	133.743	-27.6442	-37.5358	106.57	-38.8295	-49.286	75.9368	-34.6197	-24.0667	133.978	-44.6209	-20.3497	106.638	-47.5349	-35.2426	77.391	-42.6848	-21.8231	158.028	-10.69	22.1213	159.22	-8.32442	55.8157	149.847	24.8968	30.0355	
239	1.99167	101.117	31.7413	33.3823	80.0552	18.1549	9.92556	64.1936	4.13429	-20.2412	68.5703	-17.3818	-43.9405	128.47	24.9993	-41.7612	109.269	8.06625	-62.3668	79.142	-7.59227	-50.0262	139.222	1.91064	-46.5012	112.445	-17.3874	-62.9349	80.6044	-21.7848	-37.4111	141.515	-19.7068	-43.304	114.236	-32.5062	-53.5475	86.6198	-35.7742	-28.8062	146.449	-35.6029	-23.1816	119.435	-41.3403	-40.6423	89.3568	-46.5875	-24.5077	160.178	-3.55943	16.5071	162.035	-0.0820358	50.7527	147.419	28.4351	33.8042	
240	2	101.467	25.7142	37.7965	75.5278	14.8202	8.72098	65.8918	0.524309	-19.3745	67.8398	-16.9945	-43.386	126.465	28.7351	-41.8678	106.209	10.1592	-61.3294	82.2314	-5.39163	-48.1644	138.464	10.8725	-47.9021	113.359	-6.94881	-63.7226	83.5774	-21.0861	-36.7991	144.339	-7.55004	-42.937	118.382	-22.7801	-55.8697	94.7172	-30.7785	-34.9757	152.396	-25.7189	-31.1842	125.627	-34.1591	-44.9569	100.899	-42.21	-27.108	164.627	1.58296	19.7439	167.182	2.02424	54.6976	146.071	32.6683	33.93	
241	2.00833	97.1437	23.7281	41.5967	72.8006	10.0434	12.0015	64.9482	-2.27751	-18.4173	72.44	-17.255	-42.5514	117.538	37.323	-35.5119	101.93	20.1547	-57.5663	79.3138	-3.05774	-44.5522	131.993	22.4769	-44.1074	108.481	2.00578	-62.5406	89.9344	-23.4529	-39.4437	142.63	3.94563	-42.6044	118.959	-15.3619	-56.3921	99.7042	-31.1009	-34.0589	153.269	-13.5316	-29.1697	127.605	-26.928	-45.8221	103.752	-41.0893	-24.7316	163.067	12.008	20.4261	163.38	8.8679	53.6821	140.118	36.1487	36.5389	
242	2.01667	92.4704	22.3983	45.829	72.2994	8.38424	18.6743	58.4177	-3.01755	-13.4978	66.3308	-15.1071	-35.6001	107.252	46.4942	-27.3773	92.961	26.982	-52.7281	77.2275	-2.44541	-40.9392	125.278	30.0972	-39.2132	100.21	7.9925	-58.8855	87.0299	-19.3717	-38.5084	138.01	12.9056	-38.1347	114.931	-5.29322	-54.9913	97.6242	-28.0445	-29.4214	150.941	-3.97471	-27.3133	123.884	-20.5988	-46.0581	102.425	-35.2911	-24.6718	155.616	18.8868	19.7535	162.627	12.971	55.53	133.119	37.9941	45.5331	
243	2.025	86.7936	20.5564	54.3281	65.9314	7.6812	23.9172	56.8897	-1.73053	-10.3462	60.4004	-11.6245	-36.0807	100.599	48.7471	-28.1217	85.2385	31.7724	-48.9581	71.3054	1.43923	-38.9262	119.061	36.4659	-34.1274	99.1152	14.0327	-57.4467	82.6054	-16.1746	-35.315	129.809	20.9274	-37.116	110.307	2.42674	-52.302	94.4369	-20.3081	-30.8885	143.218	5.21858	-25.6484	119.62	-11.4467	-43.8556	104.889	-27.7622	-25.3373	154.483	23.1113	20.4142	157.843	16.9308	55.4843	126.506	41.7553	47.8472	
